<svg width="14" height="12" viewBox="0 0 14 12" fill="none" xmlns="http://www.w3.org/2000/svg">
<path d="M7 0.833344C7.27614 0.833344 7.5 1.0572 7.5 1.33334V2.19093C8.00701 2.24022 8.50488 2.36432 8.9772 2.55997C9.60405 2.81962 10.1736 3.20019 10.6534 3.67996C11.1332 4.15973 11.5137 4.7293 11.7734 5.35615C12.033 5.983 12.1667 6.65485 12.1667 7.33334V10.8333H13C13.2761 10.8333 13.5 11.0572 13.5 11.3333C13.5 11.6095 13.2761 11.8333 13 11.8333H1C0.723858 11.8333 0.5 11.6095 0.5 11.3333C0.5 11.0572 0.723858 10.8333 1 10.8333H1.83333V7.33334C1.83333 6.65485 1.96697 5.983 2.22662 5.35615C2.48627 4.7293 2.86685 4.15973 3.34661 3.67996C3.82638 3.20019 4.39595 2.81962 5.0228 2.55997C5.49512 2.36433 5.99299 2.24022 6.5 2.19093V1.33334C6.5 1.0572 6.72386 0.833344 7 0.833344Z" fill="#324168"/>
</svg>
