<svg width="10" height="7" viewBox="0 0 10 7" fill="none" xmlns="http://www.w3.org/2000/svg">
<path fill-rule="evenodd" clip-rule="evenodd" d="M4.6763 6.44301C4.7979 6.51901 4.9522 6.51901 5.0738 6.44301L9.0738 3.94301C9.24943 3.83324 9.30282 3.60189 9.19305 3.42626C9.08328 3.25064 8.85193 3.19725 8.6763 3.30701L4.87505 5.68279L1.0738 3.30701C0.898174 3.19725 0.666817 3.25064 0.557051 3.42626C0.447284 3.60189 0.500674 3.83324 0.676301 3.94301L4.6763 6.44301Z" fill="#7BBDFF"/>
<path fill-rule="evenodd" clip-rule="evenodd" d="M4.6763 3.44301C4.7979 3.51901 4.9522 3.51901 5.0738 3.44301L9.0738 0.94301C9.24943 0.833244 9.30282 0.601887 9.19305 0.426261C9.08328 0.250635 8.85193 0.197245 8.6763 0.307011L4.87505 2.68279L1.0738 0.307011C0.898174 0.197245 0.666817 0.250635 0.557051 0.426261C0.447284 0.601887 0.500674 0.833244 0.676301 0.94301L4.6763 3.44301Z" fill="#7BBDFF"/>
</svg>
